<svg xmlns="http://www.w3.org/2000/svg" xmlns:xlink="http://www.w3.org/1999/xlink" width="259.914" height="71.869" viewBox="0 0 259.914 71.869"><defs><linearGradient id="a" x1="1.063" y1="0.153" x2="0.29" y2="1" gradientUnits="objectBoundingBox"><stop offset="0" stop-color="#f7ea4a"/><stop offset="1" stop-color="#ee6c6c"/></linearGradient></defs><g transform="translate(-1.516 -18)"><path d="M26.987-42.923a10.755,10.755,0,0,0-3.942-.809q-5.121,0-5.121,5.559V-34.5h7.884v7.85H17.924V0H7.311V-26.65H1.516V-34.5H7.311v-4.279a12.422,12.422,0,0,1,3.841-9.5q3.841-3.6,10.444-3.6a18.342,18.342,0,0,1,5.391.674ZM41.912,0H31.266V-51.076H41.912ZM56.265-39.958a6.218,6.218,0,0,1-4.414-1.6,5.156,5.156,0,0,1-1.718-3.925,4.973,4.973,0,0,1,1.718-3.908,6.424,6.424,0,0,1,4.414-1.516,6.41,6.41,0,0,1,4.43,1.516,5,5,0,0,1,1.7,3.908,5.136,5.136,0,0,1-1.7,3.976A6.324,6.324,0,0,1,56.265-39.958ZM61.521,0H50.874V-34.5H61.521ZM81.264-4.009h-.135V15.869H70.482V-34.5H81.129v5.188h.135a12.515,12.515,0,0,1,11.084-6.031q6.7,0,10.36,4.6t3.656,12.516q0,8.625-4.262,13.847A13.9,13.9,0,0,1,90.765.842,10.742,10.742,0,0,1,81.264-4.009Zm-.3-14.15V-15.4a8.782,8.782,0,0,0,1.887,5.829A6.141,6.141,0,0,0,87.8-7.311a6.528,6.528,0,0,0,5.643-2.813q2-2.813,2-7.968,0-9.1-7.075-9.1a6.644,6.644,0,0,0-5.34,2.476A9.877,9.877,0,0,0,80.96-18.16Zm63.306,3.942H121.761Q122.3-6.7,131.228-6.7a18.483,18.483,0,0,0,10.006-2.7v7.682Q136.45.842,128.8.842q-8.355,0-12.971-4.633t-4.616-12.921q0-8.591,4.986-13.611a16.612,16.612,0,0,1,12.264-5.02q7.547,0,11.674,4.481T144.267-18.7ZM134.4-20.754q0-7.412-6-7.412a5.726,5.726,0,0,0-4.43,2.123,9.634,9.634,0,0,0-2.274,5.29ZM173.106-24.9a9.235,9.235,0,0,0-4.481-1.044A6.455,6.455,0,0,0,163.2-23.4a11.1,11.1,0,0,0-1.954,6.924V0H150.6V-34.5h10.646v6.4h.135q2.527-7.008,9.1-7.008a6.856,6.856,0,0,1,2.628.4Zm27.458,0a9.235,9.235,0,0,0-4.481-1.044A6.455,6.455,0,0,0,190.66-23.4a11.1,11.1,0,0,0-1.954,6.924V0H178.059V-34.5h10.646v6.4h.135q2.527-7.008,9.1-7.008a6.856,6.856,0,0,1,2.628.4Z" transform="translate(0 74)" fill="#5a5a5a"/><path d="M31.949,83.156A4.654,4.654,0,0,0,36.6,87.812H83.158a4.654,4.654,0,0,0,4.655-4.655V50.569a4.654,4.654,0,0,0-4.655-4.655h-20.4l9.089-9.09a2.855,2.855,0,0,0-4.038-4.038L54.666,45.913H54.61l-9.638-9.636a2.855,2.855,0,0,0-4.037,4.038l5.585,5.6H36.6a4.654,4.654,0,0,0-4.655,4.655V83.156Zm8.38-31.424h28.63a2.553,2.553,0,0,1,2.56,2.561V79.431a2.553,2.553,0,0,1-2.56,2.561H40.329a2.554,2.554,0,0,1-2.561-2.561V54.293A2.554,2.554,0,0,1,40.329,51.732Zm35.846,2.91a2.91,2.91,0,1,1,2.909,2.91A2.911,2.911,0,0,1,76.175,54.642Zm0,9.31a2.91,2.91,0,1,1,2.909,2.91A2.91,2.91,0,0,1,76.175,63.953Z" transform="translate(173.617 -13.947)" fill-rule="evenodd" fill="url(#a)"/></g></svg>