<svg xmlns="http://www.w3.org/2000/svg" xmlns:xlink="http://www.w3.org/1999/xlink" width="100%" height="100%" viewBox="0 0 192.016 53.093"><defs><linearGradient id="a" x1="1.063" y1="0.153" x2="0.29" y2="1" gradientUnits="objectBoundingBox"><stop offset="0" stop-color="#f7ea4a"/><stop offset="1" stop-color="#ee6c6c"/></linearGradient></defs><g transform="translate(-1.516 -18.003)"><path d="M20.333-45.264a7.945,7.945,0,0,0-2.912-.6q-3.783,0-3.783,4.107v2.714h5.824v5.8H13.638v19.688H5.8V-33.242H1.516v-5.8H5.8V-42.2a9.177,9.177,0,0,1,2.838-7.018,10.831,10.831,0,0,1,7.716-2.66,13.55,13.55,0,0,1,3.983.5Zm11.026,31.71H23.494V-51.287h7.865Zm10.6-29.52A4.594,4.594,0,0,1,38.7-44.256a3.809,3.809,0,0,1-1.269-2.9A3.674,3.674,0,0,1,38.7-50.042a4.746,4.746,0,0,1,3.261-1.12,4.736,4.736,0,0,1,3.273,1.12,3.694,3.694,0,0,1,1.256,2.887,3.794,3.794,0,0,1-1.256,2.937,4.672,4.672,0,0,1-3.273,1.144Zm3.883,29.52H37.98V-39.041h7.866Zm14.586-2.962h-.1V-1.83H52.466V-39.041h7.866v3.833h.1a9.246,9.246,0,0,1,8.188-4.456,9.218,9.218,0,0,1,7.654,3.4q2.7,3.4,2.7,9.246,0,6.372-3.149,10.23a10.269,10.269,0,0,1-8.375,3.858,7.936,7.936,0,0,1-7.019-3.584ZM60.21-26.969v2.038A6.488,6.488,0,0,0,61.6-20.625a4.537,4.537,0,0,0,3.656,1.67,4.823,4.823,0,0,0,4.169-2.078,10.052,10.052,0,0,0,1.478-5.887q0-6.723-5.227-6.723a4.908,4.908,0,0,0-3.945,1.829,7.3,7.3,0,0,0-1.528,4.843Zm46.768,2.912H90.349q.4,5.553,6.994,5.553a13.655,13.655,0,0,0,7.392-1.995v5.675a19.427,19.427,0,0,1-9.186,1.891q-6.172,0-9.583-3.423T82.557-25.9q0-6.347,3.684-10.055a12.272,12.272,0,0,1,9.06-3.709q5.575,0,8.624,3.31t3.051,8.985Zm-7.292-4.829q0-5.476-4.433-5.476a4.23,4.23,0,0,0-3.273,1.568,7.117,7.117,0,0,0-1.68,3.908Zm28.595-3.063a6.823,6.823,0,0,0-3.31-.771,4.769,4.769,0,0,0-4.008,1.879,8.2,8.2,0,0,0-1.444,5.115v12.172h-7.865V-39.041h7.865v4.728h.1q1.867-5.177,6.723-5.177a5.065,5.065,0,0,1,1.941.3Zm20.285,0a6.822,6.822,0,0,0-3.31-.771,4.769,4.769,0,0,0-4.006,1.879,8.2,8.2,0,0,0-1.444,5.115v12.172H131.94V-39.041h7.865v4.728h.1q1.867-5.177,6.723-5.177a5.065,5.065,0,0,1,1.941.3Z" transform="translate(0 72.926)" fill="#fff"/><path d="M31.948,69.779a3.438,3.438,0,0,0,3.436,3.44h34.4a3.438,3.438,0,0,0,3.439-3.44V45.705a3.438,3.438,0,0,0-3.44-3.439H54.709l6.715-6.715a2.109,2.109,0,1,0-2.983-2.983l-9.71,9.7h-.041l-7.12-7.119a2.109,2.109,0,1,0-2.982,2.983l4.126,4.137H35.384a3.438,3.438,0,0,0-3.439,3.44V69.779Zm6.191-23.215H59.29a1.886,1.886,0,0,1,1.891,1.892V67.027a1.886,1.886,0,0,1-1.891,1.892H38.139a1.887,1.887,0,0,1-1.892-1.892V48.456a1.887,1.887,0,0,1,1.892-1.892Zm26.482,2.15a2.15,2.15,0,1,1,2.15,2.15,2.15,2.15,0,0,1-2.15-2.15Zm0,6.878a2.15,2.15,0,1,1,2.15,2.15,2.15,2.15,0,0,1-2.15-2.15Z" transform="translate(120.314 -13.947)" fill-rule="evenodd" fill="url(#a)"/></g></svg>