<svg xmlns="http://www.w3.org/2000/svg" width="33.196" height="33.358" viewBox="0 0 33.196 33.358">
  <path id="search001_-_E000" data-name="search001 - E000" d="M6.5-36.389A12.77,12.77,0,0,0-6.292-49.2,12.77,12.77,0,0,0-19.08-36.389,12.76,12.76,0,0,0-6.292-23.625a12.857,12.857,0,0,0,8.812-3.488l7.649,7.649.326-.326L2.845-27.438A12.754,12.754,0,0,0,6.5-36.389ZM-1.48-25.066a12.117,12.117,0,0,1-4.813.977,12.4,12.4,0,0,1-4.79-.953,12.428,12.428,0,0,1-3.906-2.627A12.469,12.469,0,0,1-17.638-31.6a12.006,12.006,0,0,1-.977-4.79,12.117,12.117,0,0,1,.977-4.813,12.53,12.53,0,0,1,2.627-3.929,11.928,11.928,0,0,1,3.906-2.627,12.2,12.2,0,0,1,4.813-.977,12.117,12.117,0,0,1,4.813.977,12.048,12.048,0,0,1,3.906,2.627,12.7,12.7,0,0,1,1.511,1.837,12.376,12.376,0,0,1,1.139,2.116,12.485,12.485,0,0,1,.953,4.79,12.37,12.37,0,0,1-.953,4.766A11.928,11.928,0,0,1,2.45-27.717,12.508,12.508,0,0,1,.636-26.206,12.376,12.376,0,0,1-1.48-25.066Z" transform="translate(20.58 50.7)" fill="#fff" stroke="#fff" stroke-width="3"/>
</svg>
